<?xml version="1.0" standalone="no"?>
<!DOCTYPE svg PUBLIC "-//W3C//DTD SVG 20010904//EN"
 "http://www.w3.org/TR/2001/REC-SVG-20010904/DTD/svg10.dtd">
<svg version="1.0" xmlns="http://www.w3.org/2000/svg"
 width="300.000000pt" height="262.000000pt" viewBox="0 0 300.000000 262.000000"
 preserveAspectRatio="xMidYMid meet">
<metadata>
Created by potrace 1.10, written by Peter Selinger 2001-2011
</metadata>
<g transform="translate(0.000000,262.000000) scale(0.100000,-0.100000)"
fill="#000000" stroke="none">
<path d="M1422 2304 c-41 -29 -17 -84 37 -84 51 0 68 43 31 80 -24 24 -38 25
-68 4z"/>
<path d="M1560 2300 c14 -26 12 -62 -4 -86 -14 -20 -13 -21 60 -32 143 -22
281 -96 399 -211 80 -79 127 -148 168 -249 17 -42 32 -78 33 -80 1 -2 11 1 22
7 15 8 23 7 30 -2 6 -7 9 -100 7 -235 -2 -235 -8 -264 -43 -229 -15 16 -17 42
-17 232 0 207 -1 215 -20 215 -10 0 -29 12 -41 27 l-21 27 -19 -22 c-10 -12
-27 -22 -37 -22 -19 0 -19 -9 -15 -206 3 -174 7 -207 20 -215 9 -5 18 -20 22
-33 12 -48 66 -33 66 19 0 36 27 40 35 5 19 -87 -95 -297 -226 -414 -286 -259
-752 -259 -1055 0 -90 77 -186 220 -216 318 -4 17 -9 153 -9 303 0 260 1 274
22 325 67 157 211 303 379 382 71 34 186 65 239 66 17 0 21 3 14 13 -17 21
-22 58 -12 84 l10 26 -62 -7 c-128 -15 -314 -102 -445 -208 -75 -60 -175 -187
-222 -282 -54 -108 -63 -161 -69 -391 l-5 -210 31 -95 c96 -293 330 -519 621
-599 177 -50 334 -48 518 5 255 74 480 277 577 519 l27 70 0 295 c0 279 -1
298 -21 349 -62 154 -192 311 -339 408 -109 73 -236 122 -380 147 -30 5 -32 4
-22 -14z m-271 -39 c27 -17 3 -39 -56 -51 -87 -18 -232 -91 -314 -156 -114
-92 -216 -233 -253 -351 -5 -15 -12 -19 -26 -16 -11 3 -20 10 -20 16 0 51 108
233 185 311 55 56 129 116 142 116 6 0 16 6 22 14 16 19 108 62 206 97 88 32
94 33 114 20z m444 -22 c144 -50 276 -134 369 -233 69 -73 188 -283 188 -332
0 -11 -5 -11 -23 -3 -15 7 -36 37 -57 82 -75 160 -193 292 -335 372 -58 33
-171 77 -228 90 -31 6 -47 33 -27 45 16 10 34 7 113 -21z m-1075 -815 c2 -196
0 -233 -13 -244 -8 -7 -22 -10 -30 -6 -13 5 -15 40 -15 239 0 129 3 237 7 241
4 4 16 6 28 4 19 -3 20 -10 23 -234z m1486 206 l26 -10 0 -188 c0 -168 -2
-191 -18 -205 -35 -32 -41 -9 -42 153 -1 218 -1 260 4 260 3 0 16 -4 30 -10z
m146 -475 c0 -22 -40 -124 -73 -185 -106 -198 -298 -348 -527 -413 -83 -24
-226 -39 -305 -32 -168 15 -366 93 -493 195 -112 90 -232 260 -266 378 l-15
53 26 -3 c22 -2 28 -11 40 -50 34 -120 155 -284 271 -370 320 -237 775 -217
1060 47 39 36 87 88 107 115 39 54 125 217 125 239 0 14 28 40 43 41 4 0 7 -7
7 -15z"/>
<path d="M1290 1938 c-26 -7 -73 -48 -177 -155 l-143 -146 6 -189 c6 -183 5
-191 -15 -209 -29 -27 -28 -86 2 -130 18 -27 30 -35 60 -37 36 -3 38 -5 32
-32 -7 -32 15 -84 40 -94 9 -3 34 -6 56 -6 35 0 39 -3 39 -25 0 -64 66 -105
139 -85 22 6 47 20 55 31 14 21 15 21 54 -20 29 -31 47 -41 70 -41 36 0 72 30
72 59 0 20 -39 73 -77 104 -14 11 -23 30 -23 46 0 18 -12 39 -35 61 -19 19
-35 38 -35 42 0 19 34 5 64 -25 17 -18 64 -67 105 -110 41 -43 82 -77 92 -77
26 0 59 35 59 62 0 14 -39 61 -112 134 -95 97 -109 115 -98 129 7 8 18 15 24
15 6 0 63 -52 126 -115 123 -123 144 -134 179 -90 31 40 12 73 -105 182 -57
53 -104 102 -104 108 0 13 21 25 42 25 6 0 62 -50 124 -111 108 -106 116 -111
147 -105 17 4 40 15 50 24 15 16 16 24 7 69 -6 28 -12 124 -13 214 l-2 162
-35 20 c-19 10 -63 46 -96 79 -34 34 -69 65 -78 70 -15 9 -15 12 7 34 29 29
41 81 27 118 l-10 26 -242 -1 c-134 0 -259 -5 -278 -11z m82 -51 c-18 -18 -30
-35 -28 -38 3 -3 -17 -29 -45 -58 -63 -67 -70 -100 -27 -136 40 -34 120 -32
148 4 3 4 19 17 37 29 l32 23 27 -23 c15 -13 59 -53 98 -89 39 -36 95 -88 124
-115 30 -27 84 -77 120 -111 91 -85 113 -83 27 2 -62 62 -321 302 -353 328
-19 15 -40 27 -48 27 -8 0 -34 -18 -58 -40 -36 -34 -50 -40 -86 -40 -46 0 -80
21 -80 49 0 19 165 180 198 192 13 5 40 9 60 9 81 0 101 -13 270 -183 l162
-163 1 -110 c0 -60 3 -103 6 -96 2 6 8 12 12 12 4 0 8 -6 9 -12 0 -7 4 -46 8
-85 7 -70 6 -73 -17 -82 -34 -12 -50 -2 -162 106 -91 88 -99 94 -135 91 -29
-2 -40 -9 -50 -30 -18 -39 -1 -66 96 -158 86 -82 109 -114 91 -126 -10 -6
-138 109 -176 157 -19 25 -81 51 -104 44 -11 -4 -26 -17 -35 -29 -23 -36 -5
-66 96 -164 49 -49 90 -93 90 -99 0 -35 -31 -16 -115 70 -52 52 -104 98 -116
102 -17 6 -29 0 -56 -29 -47 -50 -59 -47 -60 15 0 36 -6 54 -19 65 -25 19 -98
12 -124 -11 -19 -17 -19 -17 -10 13 11 39 3 70 -23 100 -26 28 -60 28 -103 1
-31 -19 -34 -19 -34 -4 0 14 -3 15 -14 6 -13 -11 -15 8 -15 132 -1 80 3 157 9
172 5 14 70 86 142 160 117 117 138 134 178 143 83 18 88 16 52 -21z m378 23
c18 0 29 -6 32 -18 6 -20 -19 -92 -31 -92 -14 0 -40 26 -59 60 -11 19 -25 34
-30 33 -7 -2 -9 4 -5 13 4 12 14 14 36 10 16 -3 42 -6 57 -6z m228 -374 c2
-16 -2 -34 -8 -40 -9 -8 -11 -4 -9 19 2 17 -1 36 -5 44 -6 9 -5 12 5 9 8 -2
15 -17 17 -32z m-829 -262 c12 -15 21 -33 21 -41 0 -8 -23 -39 -52 -69 -44
-47 -56 -54 -77 -49 -40 10 -51 24 -51 63 0 29 8 43 46 79 54 50 84 54 113 17z
m156 -104 c27 -29 13 -59 -59 -128 -68 -65 -100 -77 -130 -46 -32 32 -20 64
50 131 71 69 106 80 139 43z m103 -120 c36 -34 28 -64 -30 -120 -43 -41 -60
-50 -89 -50 -38 0 -49 12 -49 52 0 24 107 138 130 138 9 0 26 -9 38 -20z m78
-117 c83 -92 35 -119 -63 -36 l-27 24 25 24 c13 13 26 24 27 24 2 1 19 -16 38
-36z"/>
<path d="M1315 1554 c-25 -27 -27 -39 -27 -139 0 -120 1 -126 32 -157 41 -41
75 -35 186 33 156 96 153 131 -20 234 -104 62 -135 67 -171 29z m163 -66 c57
-34 106 -68 110 -76 6 -18 -43 -62 -96 -88 -18 -8 -50 -27 -69 -40 -42 -28
-60 -30 -85 -7 -15 14 -18 32 -18 125 0 113 9 148 37 148 9 0 63 -28 121 -62z"/>
<path d="M917 1778 c-33 -18 -14 -118 22 -118 13 0 21 11 28 38 16 61 -10 103
-50 80z"/>
<path d="M1963 1765 c-9 -25 4 -96 21 -114 16 -16 18 -13 18 29 1 3 -2 17 -6
33 -4 15 -2 27 4 27 5 0 12 -11 15 -25 3 -14 7 -36 10 -50 3 -14 10 -25 15
-25 14 0 12 114 -2 128 -17 17 -67 15 -75 -3z"/>
<path d="M823 1683 c-18 -6 -16 -43 1 -43 8 0 16 6 19 13 14 39 20 -28 19
-225 0 -123 -1 -229 -1 -236 -1 -9 -8 -11 -23 -6 -13 3 -25 8 -27 11 -3 2 -4
100 -2 218 2 208 2 215 -17 215 -11 0 -25 7 -32 15 -14 17 -40 20 -40 5 0 -5
9 -10 20 -10 19 0 20 -7 20 -220 l0 -220 -25 0 c-18 0 -23 -4 -19 -15 4 -8 12
-15 19 -15 7 0 18 7 25 15 19 22 30 18 41 -15 13 -36 40 -39 61 -8 26 39 41
13 34 -57 -7 -69 6 -92 44 -80 26 8 27 51 1 58 -27 7 -34 77 -31 345 1 128 -2
231 -7 230 -4 -1 -21 5 -38 14 -16 8 -36 13 -42 11z m72 -293 c-3 -122 -15
-127 -15 -7 0 53 4 97 9 97 5 0 8 -41 6 -90z"/>
<path d="M497 1673 c-9 -8 -9 -126 -1 -147 12 -31 24 -4 24 53 0 31 5 62 11
68 6 6 8 16 5 22 -8 12 -29 15 -39 4z"/>
<path d="M2358 1675 c-9 -9 4 -149 15 -163 16 -20 16 -180 0 -200 -7 -9 -13
-40 -13 -68 0 -27 -4 -54 -10 -60 -6 -6 -6 -15 0 -24 7 -12 13 -13 27 -4 15
10 17 23 14 88 -2 42 0 76 3 76 3 0 15 -5 25 -12 31 -19 51 -3 51 42 0 38 1
40 21 30 38 -21 68 31 34 60 -20 17 -49 9 -53 -15 -4 -27 -35 -85 -44 -85 -5
0 -8 34 -8 75 0 76 9 93 27 53 l11 -23 10 25 c6 15 6 32 0 43 -10 19 -33 23
-43 7 -3 -5 -15 -10 -26 -10 -17 0 -20 5 -15 28 18 89 4 166 -26 137z"/>
<path d="M417 1523 c-22 -21 10 -92 34 -77 19 11 30 56 18 70 -12 15 -41 19
-52 7z"/>
<path d="M357 1453 c-12 -11 -8 -70 6 -81 19 -16 40 2 32 27 -4 12 -2 21 4 21
17 0 13 27 -5 34 -20 8 -29 8 -37 -1z"/>
<path d="M262 1441 c-8 -4 -12 -21 -10 -37 2 -23 8 -29 27 -29 31 0 50 28 35
53 -13 20 -34 25 -52 13z"/>
<path d="M2580 1435 c-15 -18 -5 -64 15 -72 35 -13 61 47 33 75 -16 16 -33 15
-48 -3z"/>
<path d="M427 1372 c-23 -25 -21 -59 2 -71 26 -14 43 8 39 50 -4 39 -18 46
-41 21z"/>
<path d="M496 1329 c-9 -46 -7 -152 3 -168 15 -23 45 -5 36 22 -4 12 -11 55
-15 95 -10 85 -15 96 -24 51z"/>
<path d="M2036 1195 c-4 -11 -14 -34 -23 -51 -16 -33 -15 -80 2 -77 16 2 36
74 33 113 -3 29 -5 31 -12 15z"/>
<path d="M1160 321 c-34 -10 -31 -34 5 -42 40 -9 442 -11 528 -2 55 5 67 9 67
23 0 10 -10 20 -22 24 -32 8 -547 6 -578 -3z"/>
<path d="M1024 309 c-10 -18 13 -32 40 -25 37 9 34 36 -3 36 -17 0 -33 -5 -37
-11z"/>
<path d="M1804 309 c-3 -6 -2 -15 4 -21 15 -15 56 -5 60 15 3 13 -3 17 -27 17
-16 0 -33 -5 -37 -11z"/>
</g>
</svg>
